<svg xmlns="http://www.w3.org/2000/svg" width="161" height="110.033" viewBox="0 0 161 110.033"><defs><style>.a{fill:#c0e3f0;}.b{fill:#273a58;}.c{fill:#f4634e;}.d{fill:#219ad1;}.e{fill:#fff;}</style></defs><g transform="translate(-240 -744.733)"><rect class="a" width="161" height="54" rx="27" transform="translate(240 785)"/><rect class="a" width="83" height="28" rx="14" transform="translate(279 779)"/><g transform="translate(-2310.406 -807.932)"><path class="b" d="M2606.457,1575.323c0-1.256-.012-2.359,0-3.462.018-1.331.553-1.868,1.9-1.876,2.181-.013,4.362,0,6.543,0h1.1a14.687,14.687,0,0,1,25.672-12.18,12.612,12.612,0,0,1,2.995,5.736c.4,2.114.491,4.284.737,6.613h5.015c.85,0,1.7-.026,2.55.008,1.179.048,1.681.539,1.718,1.715s.008,2.342.008,3.622h1.235q6.654,0,13.307,0c2.4,0,3.342.967,3.342,3.369q0,39.984,0,79.968c0,2.84-1.023,3.86-3.875,3.86h-76.514c-2.708,0-3.783-1.054-3.784-3.734q0-39.983,0-79.967c0-2.634,1.059-3.673,3.711-3.674h14.338Zm-14.5,84.084h77.406v-80.5H2654.7c0,2.183,0,4.318,0,6.453,0,3.052-.088,3.143-3.088,3.143l-41.916,0c-2.993,0-3.066-.07-3.075-3.034-.006-2.172,0-4.344,0-6.556h-14.666Zm59.342-85.773h-1.239c-2.328,0-4.656.02-6.984-.009-1.523-.019-2.094-.876-1.668-2.35a15.035,15.035,0,0,0,.544-2.256,11.734,11.734,0,0,0-6.091-11.545,11.284,11.284,0,0,0-15.893,13.792c.441,1.283-.237,2.2-1.727,2.222-2.328.035-4.656.009-6.985.008h-1.218v11.756h41.26Z" transform="translate(0 0)"/><path class="c" d="M2727.211,1585.856v11.617H2685.95v-11.755h1.218c2.328,0,4.657.026,6.984-.008,1.49-.022,2.168-.938,1.728-2.222a11.284,11.284,0,0,1,15.893-13.792,11.734,11.734,0,0,1,6.091,11.545,15.037,15.037,0,0,1-.544,2.256c-.426,1.474.146,2.331,1.668,2.35,2.328.029,4.656.009,6.984.009Zm-15.781-8.968a4.856,4.856,0,1,0-4.925,4.814A4.865,4.865,0,0,0,2711.43,1576.888Z" transform="translate(-75.913 -12.223)"/><path class="b" d="M2689.98,1834.044c2.765,0,5.417-.059,8.065.027a3.263,3.263,0,0,0,2.785-1.166c1.184-1.318,2.484-2.532,3.749-3.777,1.021-1.005,1.815-1,2.85.02q2.524,2.494,5.021,5.016a1.683,1.683,0,0,1,.016,2.77c-1.452,1.475-2.948,2.908-4.369,4.412a2.193,2.193,0,0,0-.555,1.335c-.054,2.439-.009,4.88-.038,7.319a1.146,1.146,0,0,0,.781,1.246,5.491,5.491,0,0,1,3.068,6.342,5.683,5.683,0,0,1-11.051.035,5.524,5.524,0,0,1,3.049-6.365,1.217,1.217,0,0,0,.843-1.32c-.042-2.365.018-4.733-.049-7.1a2.585,2.585,0,0,0-.62-1.533,48.154,48.154,0,0,0-3.45-3.446,2.523,2.523,0,0,0-1.531-.624c-6.616-.04-13.232-.017-19.848-.035a1.539,1.539,0,0,0-1.461.817,12.167,12.167,0,0,1-2.612,2.589c-.463.351-.723.573-.717,1.173q.044,3.936,0,7.874c-.009.714.213.95.944.966,3.078.067,3.077.09,3.079,3.124,0,2.033.019,4.067,0,6.1-.014,1.415-.539,1.92-1.965,1.927q-3.659.016-7.318-.005c-1.335-.009-1.876-.552-1.884-1.893q-.023-3.66,0-7.32c.008-1.416.514-1.91,1.943-1.945.624-.015,1.248,0,2.053,0v-2.341c0-2.107-.021-4.215.013-6.321a1.059,1.059,0,0,0-.725-1.161,5.553,5.553,0,0,1-3.248-5.87,5.651,5.651,0,0,1,10.729-1.6c.153.3.521.689.8.694,2.764.051,5.53.031,8.374.031v-9.08h-20.281c0,.711.022,1.4,0,2.1-.048,1.22-.573,1.81-1.755,1.825q-4.1.05-8.2-.005a1.538,1.538,0,0,1-1.693-1.751q-.034-3.937,0-7.874a1.5,1.5,0,0,1,1.709-1.71q4.1-.048,8.2,0c1.186.014,1.672.527,1.728,1.7.034.726.006,1.455.006,2.293h1.241q10.035,0,20.069.007c1.83,0,2.264.445,2.268,2.309q.008,4.436,0,8.872Zm-31.832-13.115v4.562h4.833v-4.562Zm16.714,37.63v-4.546h-4.506v4.546Zm33.993-22.74-2.867-2.972-2.912,2.8,2.852,3.068Zm-2.88,18.142a2.259,2.259,0,0,0-2.319,2.3,2.317,2.317,0,0,0,2.41,2.35,2.271,2.271,0,0,0,2.239-2.388A2.2,2.2,0,0,0,2705.974,1853.962Zm-31.225-18.245a2.292,2.292,0,0,0-2.293-2.337,2.417,2.417,0,0,0-2.369,2.307,2.275,2.275,0,0,0,2.376,2.355A2.252,2.252,0,0,0,2674.749,1835.717Z" transform="translate(-51.618 -206.119)"/><path class="b" d="M2680.407,1785.356c-3.911,0-7.823.008-11.734,0-1.374,0-2.081-.757-1.866-1.97.193-1.091.983-1.365,1.962-1.365q5.535.006,11.07,0,6.143,0,12.287.007c1.351,0,1.995.563,2,1.673s-.589,1.652-1.873,1.656C2688.3,1785.364,2684.355,1785.356,2680.407,1785.356Z" transform="translate(-60.985 -178.489)"/><path class="b" d="M2773.087,1745.427c-3.7,0-7.393-.007-11.09,0-.895,0-1.611-.227-1.9-1.175-.375-1.246.463-2.17,2-2.174q6.6-.014,13.2,0,4.491,0,8.983,0c.927,0,1.7.264,1.91,1.3.259,1.25-.467,2.036-1.907,2.041C2780.554,1745.435,2776.821,1745.427,2773.087,1745.427Z" transform="translate(-133.55 -147.409)"/><path class="b" d="M2815.509,1785.347c-2,0-3.99.012-5.985,0-1.225-.01-1.806-.532-1.838-1.582-.032-1.091.594-1.735,1.818-1.742q5.985-.031,11.969,0a1.663,1.663,0,0,1,1.858,1.739c-.018,1.029-.631,1.58-1.839,1.59-1.995.017-3.99,0-5.985,0Z" transform="translate(-170.652 -178.479)"/><path class="b" d="M2678.162,1745.411c-1.88,0-3.761.012-5.641,0-1.3-.011-1.9-.541-1.9-1.624s.621-1.7,1.857-1.7q5.807-.031,11.614,0c1.216.007,1.9.673,1.875,1.708s-.689,1.613-1.939,1.623c-1.954.017-3.908,0-5.862,0Z" transform="translate(-63.98 -147.398)"/><path class="d" d="M2766.77,1589.681a4.856,4.856,0,0,1-9.711-.023,4.855,4.855,0,1,1,9.711.023Zm-4.889,1.444a1.505,1.505,0,0,0,1.538-1.424,1.509,1.509,0,1,0-3.017-.066A1.514,1.514,0,0,0,2761.882,1591.125Z" transform="translate(-131.253 -25.017)"/><path class="d" d="M2670.129,1832.9h4.833v4.562h-4.833Z" transform="translate(-63.6 -218.09)"/><path class="d" d="M2729.687,1986.635h-4.505v-4.546h4.505Z" transform="translate(-106.444 -334.194)"/><path class="d" d="M2878.5,1889.616l-2.927,2.9-2.852-3.068,2.912-2.8Z" transform="translate(-221.266 -259.915)"/><path class="d" d="M2877.661,1981.855a2.2,2.2,0,0,1,2.331,2.265,2.271,2.271,0,0,1-2.24,2.388,2.317,2.317,0,0,1-2.41-2.35A2.26,2.26,0,0,1,2877.661,1981.855Z" transform="translate(-223.305 -334.012)"/><path class="d" d="M2728.629,1891.382a2.252,2.252,0,0,1-2.286,2.326,2.275,2.275,0,0,1-2.375-2.356,2.417,2.417,0,0,1,2.368-2.307A2.292,2.292,0,0,1,2728.629,1891.382Z" transform="translate(-105.499 -261.784)"/><path class="e" d="M2773.615,1602.833a1.514,1.514,0,0,1-1.479-1.49,1.509,1.509,0,1,1,3.017.066A1.506,1.506,0,0,1,2773.615,1602.833Z" transform="translate(-142.986 -36.725)"/></g></g></svg>