<svg xmlns="http://www.w3.org/2000/svg" width="90.6" height="82.673" viewBox="0 0 90.6 82.673"><defs><style>.a{fill:#dbdbdb;}.b{fill:#39b54a;}.c{fill:#f6ff00;}.d{fill:#707070;}</style></defs><g transform="translate(-2390.19 -484.193)"><path class="a" d="M2410.339,609.411V579.989h12.2V549.8h-.958c-1.708,0-2.155.447-2.156,2.146q0,11.875,0,23.75v1.148h-1.151q-4.475,0-8.951,0c-1.711,0-2.131.432-2.131,2.154q0,18.788,0,37.575v1.212c-1.584,0-3.027-.026-4.468.01a1.486,1.486,0,0,0-1.512,1.525,1.521,1.521,0,0,0,1.523,1.519c.147.009.3,0,.443,0h7.16V609.411Z" transform="translate(-9.069 -53.982)"/><path class="b" d="M2616.4,528.763c0-.99-.013-1.841,0-2.692.021-1.1.623-1.752,1.572-1.742s1.519.665,1.537,1.778c.014.847,0,1.7,0,2.656.943,0,1.788-.008,2.634,0,1.113.013,1.778.58,1.8,1.515.022.952-.684,1.578-1.823,1.6-.766.015-1.533.009-2.3.016a1.838,1.838,0,0,0-.312.094c0,.794.007,1.637,0,2.48-.011,1.166-.6,1.847-1.572,1.836s-1.529-.69-1.538-1.87c-.007-.817,0-1.635,0-2.552-.9,0-1.683,0-2.47,0-1.24-.007-1.953-.571-1.964-1.548s.694-1.564,1.924-1.57C2614.679,528.76,2615.47,528.763,2616.4,528.763Z" transform="translate(-182.465 -33.022)"/><rect class="c" width="23" height="23" transform="translate(2424.19 542.193)"/><path class="d" d="M2396.169,563.727v-1.212q0-18.787,0-37.575c0-1.721.42-2.152,2.131-2.154q4.475-.005,8.95,0h1.152v-1.148q0-11.875,0-23.75c0-1.7.447-2.145,2.155-2.146,3.692,0,7.385-.016,11.077.013.634.005.85-.19.962-.814a13.106,13.106,0,0,1,25.785,0c.112.621.324.821.96.816,3.751-.029,7.5-.017,11.255-.012,1.467,0,1.979.51,1.979,1.965q0,11.964,0,23.927v1.15h1.15c3.042,0,6.085-.005,9.128,0,1.477,0,1.956.5,1.956,1.973q0,18.832,0,37.663v1.229c.353.024.637.059.921.062,1.034.007,2.068,0,3.1.006,1.26.009,1.96.564,1.956,1.539s-.7,1.521-1.965,1.521h-86.669c-.148,0-.3.007-.443,0a1.521,1.521,0,0,1-1.523-1.519,1.486,1.486,0,0,1,1.512-1.524C2393.143,563.7,2394.585,563.727,2396.169,563.727Zm26.043-.07v-1.1q0-10.013,0-20.026c0-1.7.45-2.147,2.15-2.148q11.121,0,22.242,0c1.71,0,2.161.445,2.162,2.136q0,10.013,0,20.026v1.1h14.908V558.1c-1.712,0-3.336.015-4.959-.006a1.478,1.478,0,0,1-1.592-1.519,1.452,1.452,0,0,1,1.5-1.529c1.179-.056,2.362-.027,3.543-.032.515,0,1.03,0,1.542,0v-4.864h-1c-1.329,0-2.659.017-3.988-.008a1.531,1.531,0,1,1-.018-3.059c.383-.024.768-.013,1.152-.013,1.263,0,2.526,0,3.906,0V546.01c0-3.692-.029-7.385.02-11.076.012-.889-.216-1.135-1.125-1.134q-27.16.043-54.32.021h-1.062v13.252c.4,0,.747,0,1.093,0,1.359.007,2.718-.01,4.075.032a1.367,1.367,0,0,1,1.388,1.247,1.413,1.413,0,0,1-.874,1.659,2.746,2.746,0,0,1-1.04.134c-1.528.013-3.056.006-4.635.006-.025.374-.056.633-.057.892-.005,1.292,0,2.584,0,3.973h1.051c1.3,0,2.6,0,3.9.009a1.535,1.535,0,0,1,1.63,1.1,1.5,1.5,0,0,1-1.526,1.967c-1.646.026-3.292.007-4.992.007v5.554Zm29.292-40.935v-1.048q0-3.589,0-7.177c0-2.776-.022-5.553.021-8.328a2.068,2.068,0,0,1,.48-1.432,2.138,2.138,0,0,1,1.594-.365c.785.161,1.02.865,1.019,1.655q-.017,7.8-.005,15.594v1.1h4.767V498.858c-3.505,0-6.929.007-10.354-.007-.579,0-.552.392-.623.766a13.114,13.114,0,0,1-25.814-.018c-.111-.6-.342-.759-.917-.754-3.13.024-6.261.01-9.392.015-.226,0-.452.043-.762.074v15.709c0,2.451-.013,4.9.02,7.354,0,.263.27.743.429.749,1.436.059,2.875.034,4.4.034V521.7q0-7.664,0-15.328a4.853,4.853,0,0,1,.02-.8,1.432,1.432,0,0,1,1.343-1.311,1.412,1.412,0,0,1,1.63,1.055,3.658,3.658,0,0,1,.109,1.048q.011,7.62.006,15.239v1.116h14.456c0-.392,0-.713,0-1.034,0-1.595-.019-3.19.009-4.784a1.545,1.545,0,0,1,1.513-1.635,1.567,1.567,0,0,1,1.591,1.652c.015.324,0,.65,0,.975v4.832Zm-52.188,41c1.279,0,2.515-.051,3.745.018.853.048,1.091-.224,1.089-1.081q-.043-14.884-.017-29.769c0-1.731.42-2.167,2.122-2.167q29.237,0,58.474,0c1.674,0,2.117.442,2.118,2.083q0,14.84,0,29.68a2.161,2.161,0,0,0,.02.7c.073.2.28.495.435.5,1.439.038,2.879.023,4.359.023V525.925h-72.346Zm36.28-76.453a10.017,10.017,0,1,0,9.9,10.244A10.044,10.044,0,0,0,2435.6,487.265Zm-1.719,76.394v-20.1h-8.5v20.1Zm3.219-.048h8.486V543.552H2437.1Z"/></g></svg>