<svg xmlns="http://www.w3.org/2000/svg" xmlns:xlink="http://www.w3.org/1999/xlink" width="161" height="86.2" viewBox="0 0 161 86.2"><defs><style>.a{fill:none;}.b{fill:#c0e3f0;}.c{clip-path:url(#a);}.d{fill:#1c3755;}.e{fill:#f4634e;}.f{fill:#29a0d8;}.g{fill:#2296f1;}</style><clipPath id="a"><rect class="a" width="115.091" height="86.2"/></clipPath></defs><g transform="translate(-240 -761)"><rect class="b" width="161" height="54" rx="27" transform="translate(240 785)"/><rect class="b" width="83" height="28" rx="14" transform="translate(279 779)"/><g transform="translate(262.868 761)"><g class="c"><path class="d" d="M115.091,84.458a2.911,2.911,0,0,1-3.072,1.742q-29.383-.019-58.765,0-24.888,0-49.776-.008a10,10,0,0,1-1.234-.035A2.26,2.26,0,0,1,.017,83.684q-.035-8.2,0-16.4a2.325,2.325,0,0,1,2.509-2.548c.892-.043,1.786-.008,2.833-.008V3.879c0-.338,0-.675,0-1.011C5.379.843,6.181.024,8.232.014,12.277,0,16.322,0,20.367,0L106.1.01c.374,0,.75-.017,1.123.006a2.338,2.338,0,0,1,2.512,2.647c.023,2.659.014,5.318.014,7.978q0,26.236-.008,52.473V64.6c1.907.43,4.3-.686,5.35,1.873ZM105.2,4.586H9.923v60.04H105.2ZM110.541,69.3H4.574V81.6H110.511v-3.9H25.482a7.468,7.468,0,0,1-1.121-.038,2.22,2.22,0,0,1,.1-4.427c.706-.068,1.422-.036,2.133-.036h83.95Z" transform="translate(0 0)"/><path class="e" d="M122.215,246.184v3.9H38.265c-.711,0-1.428-.032-2.133.036a2.22,2.22,0,0,0-.1,4.427,7.428,7.428,0,0,0,1.121.038h85.029v3.9H16.247v-12.3Zm-94.59,8.393a2.327,2.327,0,0,0,2.232-2.35,2.248,2.248,0,0,0-2.211-2.107,2.19,2.19,0,0,0-2.261,2.262,2.244,2.244,0,0,0,2.24,2.195" transform="translate(-11.673 -176.879)"/><path class="d" d="M104.294,37.874c1.761-1.5,3.287-2.88,4.9-4.154a21.483,21.483,0,0,1,34.491,12.67,20.437,20.437,0,0,1-.56,10.423,1.482,1.482,0,0,0,.4,1.756c3.927,4.041,5.161,8.833,3.279,14.149-1.893,5.352-5.871,8.36-11.52,9.015a43.25,43.25,0,0,1-4.937.113c-13.859.007-27.718-.012-41.576.013A13.968,13.968,0,0,1,77.765,77.2a13.548,13.548,0,0,1,1-18.916,1.754,1.754,0,0,0,.6-2.018A16.7,16.7,0,0,1,95.418,35.5c2.675-.032,4.354-.086,8.875,2.374M78.916,69.279h1.621q22.926-.005,45.852-.008a11.227,11.227,0,0,1,1.457.057,2.218,2.218,0,0,1,1.949,2.124,2.157,2.157,0,0,1-1.732,2.178,8.233,8.233,0,0,1-1.67.14q-22.083.015-44.166.014H80.834c.318.393.461.6.632.777a9.446,9.446,0,0,0,7.212,2.8q22.252-.02,44.5-.015a11.189,11.189,0,0,0,2.68-.218,8.822,8.822,0,0,0,7-6.952,8.682,8.682,0,0,0-3.525-9.3c-1.616-1.235-1.85-1.938-1.067-3.842a16.994,16.994,0,0,0-23-21.863,17.122,17.122,0,0,0-7.638,7.2c-.981,1.687-2.273,1.889-3.833.727-.24-.179-.481-.358-.715-.545a11.9,11.9,0,0,0-7.614-2.569A12.314,12.314,0,0,0,84.08,56.494c.906,2.429.752,2.8-1.306,4.294a9.14,9.14,0,0,0-3.859,8.491" transform="translate(-53.449 -20.844)"/><path class="d" d="M50.944,264.623a2.244,2.244,0,0,1-2.24-2.195,2.19,2.19,0,0,1,2.261-2.262,2.248,2.248,0,0,1,2.211,2.107,2.327,2.327,0,0,1-2.232,2.349" transform="translate(-34.993 -186.925)"/><path class="f" d="M90.411,80.751A9.139,9.139,0,0,1,94.27,72.26c2.058-1.493,2.212-1.865,1.305-4.294a12.314,12.314,0,0,1,11.393-16.514,11.908,11.908,0,0,1,7.614,2.569c.234.187.475.366.715.545,1.56,1.163,2.852.961,3.833-.727a17.022,17.022,0,0,1,31.7,5.311A16.826,16.826,0,0,1,149.77,68.5c-.783,1.9-.549,2.607,1.067,3.842a8.683,8.683,0,0,1,3.525,9.3,8.822,8.822,0,0,1-7,6.952,11.2,11.2,0,0,1-2.68.218q-22.252.019-44.5.015a9.447,9.447,0,0,1-7.212-2.8c-.171-.178-.314-.384-.632-.777h1.393q22.083,0,44.166-.014a8.213,8.213,0,0,0,1.67-.14,2.157,2.157,0,0,0,1.732-2.178,2.218,2.218,0,0,0-1.95-2.124,11.275,11.275,0,0,0-1.457-.057q-22.926,0-45.852.008Zm45.13-14.777c-.68-1.189-1.241-2.195-1.828-3.186A14.13,14.13,0,0,0,132.556,61a2.359,2.359,0,0,0-2.755-.678c-.972.317-1.066,1.149-1.065,2.01q0,6.349,0,12.7c0,1.192.51,1.674,1.713,1.69,1.237.016,1.774-.5,1.78-1.744.011-2.21,0-4.42.008-6.63,0-.312.048-.624.1-1.235.705,1.275,1.258,2.285,1.821,3.288.817,1.455,1.889,1.471,2.757.038.584-.965,1.153-1.939,1.729-2.909.225,2.627.214,5.163.231,7.7.007,1,.567,1.468,1.679,1.5,1.152.032,1.825-.463,1.829-1.479.017-4.382.025-8.765-.023-13.147a1.744,1.744,0,0,0-2.379-1.866,3.28,3.28,0,0,0-1.745,1.23c-.952,1.377-1.734,2.873-2.7,4.511m-16.5,4.344a1.476,1.476,0,0,1,2.069.946c.721,1.559,1.531,3.079,2.332,4.6a1.533,1.533,0,0,0,2.341.675,1.568,1.568,0,0,0,.824-2.368c-.806-1.5-1.634-3-2.463-4.514.189-.139.3-.235.425-.311a5.026,5.026,0,0,0,2.156-5.571,4.045,4.045,0,0,0-3.9-3.424c-1.852-.2-3.731-.166-5.6-.192-1.43-.02-1.723.287-1.724,1.689q0,6.512.006,13.023c0,1.35.5,1.863,1.781,1.848s1.746-.528,1.752-1.906c.007-1.489,0-2.979,0-4.493M102.7,68.54c0,1.346-.072,2.7.018,4.038a4.035,4.035,0,0,0,2.427,3.642,6.954,6.954,0,0,0,6.374-.259,4.15,4.15,0,0,0,2.167-3.468c.117-1.242-.28-1.86-1.253-2.006-1.431-.213-2.058.2-2.311,1.53-.225,1.178-.8,1.723-1.837,1.749a1.76,1.76,0,0,1-2.042-1.758c-.11-2.312-.118-4.636-.02-6.949.053-1.254.81-1.791,2.01-1.789,1.149,0,1.655.465,1.915,1.755.211,1.045.743,1.4,1.963,1.323,1.111-.073,1.594-.524,1.6-1.6a3.936,3.936,0,0,0-1.933-3.579,7.14,7.14,0,0,0-5.3-.816,4.387,4.387,0,0,0-3.757,4.152c-.093,1.34-.017,2.692-.014,4.038m44.972,12.25a2.24,2.24,0,0,0-2.211,2.315,2.307,2.307,0,0,0,2.219,2.12,2.241,2.241,0,0,0,2.243-2.183,2.161,2.161,0,0,0-2.251-2.252" transform="translate(-64.944 -32.316)"/><path class="d" d="M233.4,104.678c.962-1.638,1.743-3.134,2.7-4.511a3.282,3.282,0,0,1,1.745-1.23,1.744,1.744,0,0,1,2.379,1.866c.048,4.382.04,8.765.023,13.147,0,1.016-.677,1.511-1.829,1.479-1.113-.031-1.672-.5-1.679-1.5-.017-2.536-.006-5.072-.231-7.7-.576.97-1.145,1.944-1.729,2.909-.868,1.433-1.94,1.417-2.757-.038-.563-1-1.115-2.013-1.821-3.288-.05.611-.1.923-.1,1.235-.007,2.21,0,4.42-.008,6.63-.006,1.247-.543,1.76-1.78,1.744-1.2-.015-1.711-.5-1.713-1.69q-.012-6.349,0-12.7c0-.862.093-1.694,1.065-2.01a2.359,2.359,0,0,1,2.756.678,14.162,14.162,0,0,1,1.157,1.788c.587.991,1.148,2,1.828,3.186" transform="translate(-162.806 -71.02)"/><path class="d" d="M183.138,109.057c0,1.514.006,3,0,4.493-.006,1.378-.484,1.891-1.752,1.906s-1.78-.5-1.781-1.848q-.007-6.511-.006-13.023c0-1.4.294-1.71,1.724-1.689,1.868.026,3.747-.008,5.6.192a4.045,4.045,0,0,1,3.9,3.424,5.026,5.026,0,0,1-2.156,5.571c-.124.077-.236.172-.425.312.829,1.517,1.657,3.01,2.463,4.514a1.568,1.568,0,0,1-.824,2.367,1.532,1.532,0,0,1-2.341-.675c-.8-1.521-1.612-3.04-2.332-4.6a1.476,1.476,0,0,0-2.069-.946m.07-2.847c1.361-.142,2.833.487,3.808-.8a2.174,2.174,0,0,0-.061-2.732c-1.033-1.2-2.474-.514-3.747-.683Z" transform="translate(-129.037 -71.054)"/><path class="d" d="M134.033,107.321c0-1.346-.077-2.7.016-4.039a4.387,4.387,0,0,1,3.757-4.152,7.141,7.141,0,0,1,5.3.816,3.936,3.936,0,0,1,1.933,3.579c0,1.08-.485,1.531-1.6,1.6-1.22.08-1.752-.278-1.963-1.323-.26-1.289-.766-1.753-1.915-1.755-1.2,0-1.957.535-2.01,1.789-.1,2.313-.09,4.636.02,6.948a1.76,1.76,0,0,0,2.042,1.758c1.039-.026,1.613-.572,1.837-1.749.253-1.329.88-1.744,2.311-1.53.974.146,1.37.763,1.253,2.006a4.149,4.149,0,0,1-2.167,3.467,6.955,6.955,0,0,1-6.374.259,4.035,4.035,0,0,1-2.427-3.642c-.09-1.34-.018-2.692-.02-4.038" transform="translate(-96.279 -71.097)"/><path class="d" d="M288.221,172.191a2.161,2.161,0,0,1,2.251,2.252,2.241,2.241,0,0,1-2.243,2.183,2.307,2.307,0,0,1-2.219-2.12,2.24,2.24,0,0,1,2.211-2.315" transform="translate(-205.493 -123.716)"/><path class="g" d="M192.428,114v-4.215c1.273.169,2.714-.522,3.747.683a2.174,2.174,0,0,1,.061,2.732c-.974,1.287-2.447.658-3.807.8" transform="translate(-138.257 -78.847)"/></g></g></g></svg>