<svg xmlns="http://www.w3.org/2000/svg" width="161" height="114.546" viewBox="0 0 161 114.546"><defs><style>.a{fill:#c0e3f0;}.b{fill:#2c9acb;}.c{fill:#0a2946;}.d{fill:#1c3755;}.e{fill:#ef694c;}.f{fill:#29a0d8;}</style></defs><g transform="translate(-240 -751.724)"><rect class="a" width="161" height="54" rx="27" transform="translate(240 785)"/><rect class="a" width="83" height="28" rx="14" transform="translate(279 779)"/><g transform="translate(-3540.273 -1532.881)"><g transform="translate(3847.695 2331.116)"><g transform="translate(0)"><path class="b" d="M4023.938,2545.177a5.763,5.763,0,0,1-2.037-4.772,5.822,5.822,0,0,1,11.625.455,5.757,5.757,0,0,1-2,4.274c.667.374,1.356.7,1.983,1.123a10.566,10.566,0,0,1,4.417,6.1,3.244,3.244,0,0,1-3.183,4.157c-3.29.008-6.579,0-9.868,0-1.412,0-2.824,0-4.235,0a3.259,3.259,0,0,1-3.264-3.377,5.734,5.734,0,0,1,.589-2.118,10.817,10.817,0,0,1,5.876-5.793C4023.866,2545.212,4023.892,2545.2,4023.938,2545.177Zm2.077,1.187c-.59-.253-.591-.256-1.144-.072-.258.086-.516.176-.765.285a9.083,9.083,0,0,0-5.325,6.218,1.884,1.884,0,0,0,1.328,2.3,3.65,3.65,0,0,0,.789.059q4.356.006,8.712,0c1.717,0,3.434-.029,5.15.01a1.926,1.926,0,0,0,1.9-2.323,9.159,9.159,0,0,0-6.217-6.594,1.5,1.5,0,0,0-1.157.155c.016.082.027.153.042.222q.58,2.542,1.164,5.083a.287.287,0,0,1-.136.355c-.584.4-1.157.807-1.735,1.212l-.98.688c-.933-.656-1.849-1.3-2.771-1.943-.124-.086-.107-.178-.082-.29q.3-1.288.591-2.576C4025.592,2548.23,4025.8,2547.3,4026.015,2546.364Zm1.689-10.037a4.465,4.465,0,1,0,4.474,4.523A4.367,4.367,0,0,0,4027.7,2536.327Zm-.355,10.292c-.349,1.53-.689,3.036-1.04,4.541a.235.235,0,0,0,.114.294c.365.247.719.511,1.087.752a.3.3,0,0,0,.266,0c.375-.246.735-.515,1.107-.767a.2.2,0,0,0,.094-.256c-.213-.9-.417-1.81-.623-2.715-.14-.615-.279-1.229-.42-1.849Z" transform="translate(-4017.371 -2534.969)"/></g></g><path class="c" d="M3997.534,2642.328c0,1.905.021,3.7-.006,5.488a2.512,2.512,0,0,1-2.415,2.752,3.149,3.149,0,0,1-2-.719c-4.972-4.877-9.881-9.818-14.806-14.744a2.8,2.8,0,0,1-.229-.357c1.721-1.692,3.468-3.392,5.2-5.111q4.74-4.715,9.456-9.455a2.744,2.744,0,0,1,3.175-.859,2.662,2.662,0,0,1,1.624,2.77c0,1.7,0,3.395,0,5.253a34.174,34.174,0,0,0,32.263-33.935h3.5c.59,19.278-16.362,38.618-39.377,37.531v-6.509l-10.437,10.5,10.374,10.362v-6.565c12.865.246,24.062-3.822,33.294-12.706,9.208-8.861,13.772-19.825,14-32.637h3.609c-.213,13.119-4.694,24.476-13.756,33.888S4010.715,2641.616,3997.534,2642.328Z" transform="translate(-137.682 -251.418)"/><path class="d" d="M3856.214,2292.907c0-1.459,0-2.875,0-4.29,0-.464-.015-.93.01-1.393a2.62,2.62,0,0,1,4.513-1.8q3,2.974,5.979,5.969,4.234,4.237,8.464,8.478c.151.151.292.314.531.574-1.322,1.287-2.639,2.546-3.929,3.832-3.617,3.6-7.211,7.233-10.848,10.818a3.482,3.482,0,0,1-1.643.942,2.514,2.514,0,0,1-3.064-2.608c-.049-1.454-.013-2.91-.015-4.365,0-.362,0-.723,0-1.183a34.2,34.2,0,0,0-32.269,33.948c-.287.022-.5.051-.707.053-.923,0-1.846,0-2.766,0-.711-18.625,15.656-38.589,39.343-37.605v6.5l10.423-10.5-10.338-10.321v6.557c-12.854-.26-24.015,3.806-33.239,12.648s-13.809,19.8-14.064,32.65h-3.613c.236-13.1,4.71-24.46,13.788-33.875S3843.065,2293.636,3856.214,2292.907Z" transform="translate(0)"/><path class="e" d="M3961.05,2501.9a20.8,20.8,0,1,1,20.956,20.78A20.791,20.791,0,0,1,3961.05,2501.9Zm20.84-17.211a17.208,17.208,0,1,0,17.173,17.119A17.231,17.231,0,0,0,3981.89,2484.686Z" transform="translate(-123.818 -159.966)"/><path class="f" d="M4219.132,2425.143l-2.7-2.745,2.6-2.874,2.95,3.024Z" transform="translate(-331.757 -109.855)"/><path class="f" d="M3902.616,2736.428l2.683,2.767-2.6,2.876-2.9-3.074Z" transform="translate(-73.945 -367.887)"/><path class="f" d="M4185.771,2397.539l-3.193-2.143,2.062-3.436,3.516,2.349Z" transform="translate(-304.192 -87.411)"/><path class="f" d="M4279.783,2537.108l3.846-.975.87,4.138-3.992.586C4280.259,2539.572,4280.028,2538.376,4279.783,2537.108Z" transform="translate(-383.34 -204.801)"/><path class="f" d="M3871.848,2704.778l3.422-2.065,2.158,3.191-3.218,2.379Z" transform="translate(-51.187 -340.435)"/><path class="f" d="M3936.9,2769.8l-3.526-2.345,2.387-3.219,3.188,2.125Z" transform="translate(-101.285 -390.527)"/><path class="f" d="M4269.277,2492.829l1.616,3.906-3.76,1.35c-.494-1.18-.966-2.306-1.479-3.531Z" transform="translate(-371.835 -169.542)"/><path class="f" d="M3853.792,2670.31l-1.6-3.911,3.746-1.349,1.485,3.525Z" transform="translate(-35.181 -309.769)"/><path class="f" d="M3845.623,2628.4l-3.874.96-.838-4.137,3.969-.572Z" transform="translate(-25.998 -276.875)"/><path class="f" d="M4246.263,2459.023l-2.143-3.187,3.222-2.39,2.358,3.505Z" transform="translate(-354.302 -137.474)"/></g></g></svg>