<svg xmlns="http://www.w3.org/2000/svg" xmlns:xlink="http://www.w3.org/1999/xlink" width="161" height="88.208" viewBox="0 0 161 88.208"><defs><style>.a{fill:none;}.b{fill:#c0e3f0;}.c{clip-path:url(#a);}.d{fill:#1c3755;}.e{fill:#2296f1;}.f{fill:#f4634e;}</style><clipPath id="a"><rect class="a" width="88.214" height="88.208"/></clipPath></defs><g transform="translate(-240 -760.4)"><rect class="b" width="161" height="54" rx="27" transform="translate(240 785)"/><rect class="b" width="83" height="28" rx="14" transform="translate(279 779)"/><g transform="translate(276.414 760.4)"><g class="c"><path class="d" d="M127.861,210.038c-.225,1.645-.415,3.295-.681,4.932a44.084,44.084,0,0,1-69.713,27.711,1.012,1.012,0,0,0-1.211-.153,5.775,5.775,0,0,1-6.952-1.5,5.85,5.85,0,1,1,10.311-3.48,2.268,2.268,0,0,1-.128.845c-.467,1-.054,1.535.789,2.112,8.353,5.718,17.591,8.443,27.625,7.164,17.2-2.192,28.78-11.723,34.557-28.064a38.222,38.222,0,0,0,1.226-20.052c-.235-1.254.274-2.121,1.3-2.3,1.062-.19,1.841.392,2.057,1.665.263,1.554.438,3.122.656,4.683.043.31.107.616.161.924ZM56.115,237.3a2.478,2.478,0,0,0-2.347-2.391,2.427,2.427,0,0,0-2.341,2.3,2.457,2.457,0,0,0,2.347,2.391,2.424,2.424,0,0,0,2.341-2.3" transform="translate(-39.647 -163.175)"/><path class="d" d="M46.685,0c1.645.221,3.3.394,4.934.672A43.128,43.128,0,0,1,70.273,8.634a1.2,1.2,0,0,0,1.436.176,5.778,5.778,0,0,1,7.076,1.846,5.857,5.857,0,0,1-7.511,8.621,5.774,5.774,0,0,1-2.806-6.754.979.979,0,0,0-.452-1.31,40.624,40.624,0,0,0-50.5,2.171,40.581,40.581,0,0,0-13.342,38.5A1.737,1.737,0,0,1,2.9,54.141c-1.045.225-1.871-.372-2.092-1.617C-1.609,38.94,1.372,26.675,10.138,16A43.036,43.036,0,0,1,38.108.4C39.182.238,40.264.13,41.343,0ZM74.1,16.513a2.412,2.412,0,0,0,2.361-2.372,2.455,2.455,0,0,0-2.36-2.386,2.379,2.379,0,1,0,0,4.758" transform="translate(0)"/><path class="d" d="M75.778,110.026c-.881,0-1.884.013-2.888,0A1.8,1.8,0,0,1,70.877,108q-.013-5.168,0-10.335c0-1.4.665-2.037,2.077-2.049,1-.009,2,0,2.828,0,.954-2.152,1.869-4.184,2.743-6.233a.839.839,0,0,0-.162-.72c-.616-.681-1.3-1.3-1.927-1.969a1.679,1.679,0,0,1,0-2.59q3.755-3.8,7.553-7.551a1.707,1.707,0,0,1,2.66.012c.646.612,1.242,1.278,1.907,1.867a.907.907,0,0,0,.784.153c2.027-.856,4.036-1.756,6.182-2.7,0-.78,0-1.752,0-2.725.009-1.527.631-2.167,2.13-2.17q5.082-.008,10.164,0c1.466,0,2.11.64,2.128,2.086.012.947.011,1.894.017,2.842a.733.733,0,0,0,.039.134c1.116.407,2.278.791,3.408,1.253a26.414,26.414,0,0,1,2.554,1.233A.709.709,0,0,0,117,78.388c.575-.64,1.2-1.238,1.823-1.83a1.7,1.7,0,0,1,2.659-.005q3.8,3.754,7.553,7.55a1.685,1.685,0,0,1,0,2.592c-.609.648-1.275,1.244-1.868,1.906a.932.932,0,0,0-.21.781c.868,2.051,1.784,4.082,2.735,6.228.859,0,1.89-.011,2.922,0a1.773,1.773,0,0,1,1.986,1.963q.021,5.254,0,10.507a1.761,1.761,0,0,1-1.927,1.937c-.861.023-1.723.025-2.584,0a.713.713,0,0,0-.8.555c-.729,1.865-1.529,3.7-2.261,5.565a1,1,0,0,0,.12.856c.582.671,1.253,1.262,1.865,1.908a1.733,1.733,0,0,1-.025,2.725q-3.7,3.732-7.43,7.431a1.722,1.722,0,0,1-2.718.02c-.643-.615-1.239-1.282-1.91-1.863a1,1,0,0,0-.851-.127c-1.863.734-3.7,1.538-5.562,2.267-.424.166-.584.346-.567.791.03.831.018,1.665.006,2.5a1.8,1.8,0,0,1-2,2.045q-5.211.021-10.423,0a1.8,1.8,0,0,1-2-2.047c-.012-.832-.025-1.666.006-2.5.017-.448-.149-.624-.571-.789-1.864-.73-3.7-1.534-5.562-2.268a1,1,0,0,0-.85.13c-.65.561-1.226,1.208-1.845,1.806a1.738,1.738,0,0,1-2.78.027q-3.73-3.7-7.429-7.431a1.737,1.737,0,0,1,.04-2.781c.6-.618,1.234-1.2,1.811-1.842a.849.849,0,0,0,.2-.713c-.877-2.049-1.795-4.081-2.765-6.258m-1.4-3.469c.967,0,1.851-.012,2.736,0a1.782,1.782,0,0,1,2.013,1.591,24.772,24.772,0,0,0,3.1,7.518,1.85,1.85,0,0,1-.307,2.692c-.613.627-1.238,1.244-1.719,1.726l5.2,5.289c-.025.011.007.006.026-.012.615-.6,1.224-1.21,1.844-1.807a1.755,1.755,0,0,1,2.479-.3,25.567,25.567,0,0,0,7.67,3.18,1.762,1.762,0,0,1,1.568,2.024c.01.907,0,1.814,0,2.708h7.382a.978.978,0,0,0,.08-.224c.011-.832.011-1.664.028-2.5a1.769,1.769,0,0,1,1.58-2.015,25.172,25.172,0,0,0,7.521-3.1,1.84,1.84,0,0,1,2.747.357c.6.607,1.159,1.253,1.61,1.743l5.457-5.366c-.568-.525-1.192-1.072-1.782-1.653a1.878,1.878,0,0,1-.321-2.822,25.205,25.205,0,0,0,3.017-7.277c.336-1.372.792-1.738,2.224-1.758.848-.012,1.7,0,2.526,0V99.076c-.931,0-1.791.006-2.651,0a1.8,1.8,0,0,1-2.072-1.621,24.81,24.81,0,0,0-3.108-7.514,1.82,1.82,0,0,1,.35-2.677c.614-.595,1.284-1.132,1.816-1.6l-5.28-5.405a.074.074,0,0,0-.052.012c-.639.618-1.267,1.247-1.915,1.856a1.754,1.754,0,0,1-2.418.26,25.113,25.113,0,0,0-7.753-3.2,1.72,1.72,0,0,1-1.5-1.91c-.015-.911,0-1.822,0-2.748H99c0,.943.012,1.8,0,2.661a1.784,1.784,0,0,1-1.584,2.022,25.313,25.313,0,0,0-7.595,3.135A1.805,1.805,0,0,1,87.2,82c-.6-.608-1.163-1.255-1.691-1.828l-5.441,5.469c.546.481,1.213,1.021,1.825,1.618a1.835,1.835,0,0,1,.343,2.683,25.059,25.059,0,0,0-3.107,7.514,1.805,1.805,0,0,1-2.077,1.619c-.878.01-1.756,0-2.673,0Z" transform="translate(-58.638 -58.727)"/><path class="e" d="M17.675,338.836a1.663,1.663,0,0,1,1.713-1.661,1.768,1.768,0,0,1,1.739,1.767,1.727,1.727,0,1,1-3.452-.106" transform="translate(-14.624 -278.973)"/><path class="f" d="M476.936,155.844a1.665,1.665,0,0,1-1.689,1.689,1.7,1.7,0,0,1-1.728-1.668,1.735,1.735,0,0,1,1.749-1.749,1.7,1.7,0,0,1,1.668,1.728" transform="translate(-391.782 -127.513)"/><path class="f" d="M72.934,417.949a2.424,2.424,0,0,1-2.341,2.3,2.457,2.457,0,0,1-2.347-2.391,2.427,2.427,0,0,1,2.341-2.3,2.478,2.478,0,0,1,2.347,2.391" transform="translate(-56.465 -343.826)"/><path class="e" d="M417.753,72.857a2.379,2.379,0,1,1,0-4.758,2.455,2.455,0,0,1,2.36,2.386,2.412,2.412,0,0,1-2.361,2.372" transform="translate(-343.658 -56.344)"/><path class="d" d="M193.953,177.734a16.22,16.22,0,1,1-16.185-16.164,16.253,16.253,0,0,1,16.185,16.164m-16.292,12.8a12.749,12.749,0,1,0-12.679-12.841,12.779,12.779,0,0,0,12.679,12.841" transform="translate(-133.633 -133.68)"/><path class="f" d="M194.291,207.163a12.749,12.749,0,1,1,12.823-12.7,12.78,12.78,0,0,1-12.823,12.7M189,194.423h0c0,1.435-.02,2.87,0,4.3a3.186,3.186,0,0,0,4.9,2.766c2.333-1.4,4.625-2.881,6.884-4.4a3.17,3.17,0,0,0-.013-5.365q-3.355-2.255-6.808-4.361a3.191,3.191,0,0,0-4.957,2.754c-.025,1.434,0,2.869,0,4.3" transform="translate(-150.263 -150.307)"/><path class="d" d="M224.366,219.218c0-1.435-.021-2.87,0-4.3a3.191,3.191,0,0,1,4.957-2.754q3.452,2.1,6.808,4.361a3.17,3.17,0,0,1,.013,5.365c-2.258,1.521-4.55,3-6.884,4.4a3.185,3.185,0,0,1-4.9-2.766c-.024-1.434,0-2.869,0-4.3Zm3.561,3.745,5.85-3.748-5.85-3.748Z" transform="translate(-185.627 -175.102)"/><path class="e" d="M245.056,241.338v-7.5l5.85,3.748-5.85,3.748" transform="translate(-202.756 -193.477)"/></g></g></g></svg>