<svg xmlns="http://www.w3.org/2000/svg" xmlns:xlink="http://www.w3.org/1999/xlink" width="161" height="105.953" viewBox="0 0 161 105.953"><defs><style>.a{fill:none;}.b{fill:#c0e3f0;}.c{clip-path:url(#a);}.d{fill:#1c3755;}.e{fill:#29a0d8;}.f{fill:#f4634e;}</style><clipPath id="a"><rect class="a" width="105.884" height="105.953"/></clipPath></defs><g transform="translate(-240 -745.2)"><rect class="b" width="161" height="54" rx="27" transform="translate(240 785)"/><rect class="b" width="83" height="28" rx="14" transform="translate(279 779)"/><g transform="translate(269.161 745.2)"><g class="c"><path class="d" d="M14.046,135.928c-3.016,3.472-1.678,7.348-1.924,11.312a36.024,36.024,0,0,1,5.136.072c.8.12,1.488.99,2.227,1.52-.721.539-1.429,1.525-2.164,1.544q-7.594.205-15.195,0C1.4,150.354.708,149.327,0,148.766c.688-.508,1.341-1.386,2.069-1.454,2.113-.2,4.257-.07,6.8-.07,0-1.928.108-3.714-.027-5.482A8.93,8.93,0,0,1,10.6,135.3c1-1.285.778-2.236-.243-3.5A37.771,37.771,0,0,1,8.731,86.905c1.809-2.628,2.285-2.685,4.505-.47,4.931,4.92,9.89,9.814,14.751,14.8a2.926,2.926,0,0,0,3.676.817c6.31-2.342,12.4.038,13.9,5.76a17.968,17.968,0,0,1-.321,8.079c-.345,1.563-.236,2.365.847,3.426,5.03,4.932,9.991,9.936,14.961,14.928,2.087,2.1,2.014,2.643-.459,4.345A37.976,37.976,0,0,1,16.01,137.43c-.62-.478-1.243-.951-1.964-1.5m43.615.436L10.915,89.526c-9.236,13.043-7.039,32.559,5.1,43.733,12.939,11.914,31.865,10.62,41.65,3.106m-24.83-31.331,9.438,9.537a7.053,7.053,0,0,0-.95-8.271c-1.642-1.834-6.193-2.8-8.488-1.266" transform="translate(0 -44.526)"/><path class="d" d="M180.169,28.966q0,12.709,0,25.419c0,3.055-.213,3.3-3.166,3.3q-16.154.019-32.309,0c-2.93,0-3.114-.188-3.117-3.085q-.021-25.773-.019-51.547c0-2.85.214-3.051,3.144-3.052Q160.736,0,176.772,0c3.286,0,3.394.1,3.4,3.307q.006,12.828,0,25.657M144.71,44.532h32.116V3.373H144.71Zm32.147,1.583H169.73c-7.677,0-15.355-.03-23.031.051-.7.008-1.964.689-2,1.142-.2,2.328-.1,4.684-.1,7.114h32.258Z" transform="translate(-74.285 0)"/><path class="d" d="M145.527,169.637h15.164c.049-.923.137-1.836.14-2.75.014-5.223,0-10.447.013-15.671,0-1.19-.081-2.712,1.612-2.489.577.076,1.361,1.576,1.377,2.439.12,6.33,0,12.663.111,18.994.039,2.261-.924,2.858-2.992,2.82-4.958-.09-9.918-.029-15.474-.029,1.8,2.038,3.348,3.581,4.618,5.324.469.643.289,1.757.4,2.657-.889-.222-2.06-.161-2.619-.716-2.355-2.34-4.506-4.883-6.777-7.311-.969-1.036-1.158-1.946-.109-3.069,2.323-2.486,4.516-5.1,6.919-7.5.526-.526,1.71-.391,2.591-.561-.118.89.056,1.994-.411,2.629-1.254,1.712-2.78,3.225-4.57,5.234" transform="translate(-73.621 -78.037)"/><path class="d" d="M67.452,15.709c-1.682-1.913-3.187-3.4-4.392-5.1-.51-.721-.391-1.888-.558-2.852.935.257,2.15.228,2.755.821,2.255,2.215,4.28,4.663,6.454,6.965,1.142,1.209,1.186,2.263.04,3.5-2.211,2.376-4.289,4.879-6.575,7.177-.568.572-1.716.568-2.6.828.11-.961-.1-2.147.393-2.839a65.167,65.167,0,0,1,4.456-5.137H48.3c0,4.15,0,8.17,0,12.189a5,5,0,0,1-.065,1.879,7.509,7.509,0,0,1-1.388,1.66,9.762,9.762,0,0,1-1.634-1.679c-.249-.411-.079-1.081-.08-1.635q-.009-6.057-.008-12.114c0-3.4.108-3.515,3.414-3.518,5.384-.006,10.768.007,16.151,0,.755,0,1.509-.073,2.761-.138" transform="translate(-23.657 -4.07)"/><path class="d" d="M80.857,79.79c13.546.529,24.972,12.152,25.2,25.062.02,1.181.234,2.62-1.477,2.7-1.673.081-1.678-1.3-1.755-2.519-.761-11.922-9.043-20.628-20.938-22.027-.471-.056-.94-.147-1.413-.179-1.128-.077-2.556-.108-2.212-1.642.139-.619,1.6-.958,2.478-1.384.192-.093.468-.013.121-.013" transform="translate(-41.04 -41.855)"/><path class="d" d="M76.215,96.811c9.592.766,17.788,9.017,17.935,18.309.014.828-.956,1.671-1.469,2.508-.544-.729-1.487-1.415-1.57-2.193-.934-8.626-6.212-14.067-14.875-15.118-1.095-.133-2.577-.019-2.249-1.594.158-.758,1.449-1.282,2.227-1.911" transform="translate(-38.803 -50.804)"/><path class="e" d="M63.421,141.529c-9.784,7.515-28.71,8.809-41.649-3.106-12.135-11.174-14.332-30.69-5.1-43.733l46.746,46.838m-39.342-8.68-.5,1.181a27.153,27.153,0,0,0,17.335,8.7c7.036.825,13.908-.6,15.753-3.583C44.3,143.594,33.5,141.71,24.079,132.85" transform="translate(-5.76 -49.691)"/><path class="f" d="M69.086,126.482c2.3-1.53,6.847-.568,8.488,1.266a7.053,7.053,0,0,1,.949,8.271l-9.438-9.537" transform="translate(-36.255 -65.976)"/><path class="f" d="M180.185,97.031v8.307H147.927c0-2.429-.109-4.786.1-7.114.04-.453,1.3-1.134,2-1.142,7.677-.082,15.354-.051,23.031-.051ZM168.726,102.1q-.018-.472-.036-.943c-3.073-.256-6.148-.549-9.175.149.012.265.024.529.036.794Z" transform="translate(-77.613 -50.916)"/><path class="d" d="M38,174.987c9.418,8.86,20.225,10.744,32.591,6.294-1.844,2.986-8.717,4.408-15.753,3.583a27.153,27.153,0,0,1-17.335-8.7l.5-1.181" transform="translate(-19.681 -91.829)"/><path class="d" d="M173.574,14.326h-9.711c.99-1.568,7.425-1.78,9.711,0" transform="translate(-85.991 -6.858)"/><path class="d" d="M202.481,14.323h-5.443c1.133-1.52,3.646-1.668,5.443,0" transform="translate(-103.4 -6.889)"/><path class="d" d="M181.554,106.345h-9.175c-.012-.265-.024-.529-.036-.794,3.027-.7,6.1-.4,9.175-.149q.018.471.036.943" transform="translate(-90.441 -55.162)"/></g></g></g></svg>