<svg xmlns="http://www.w3.org/2000/svg" xmlns:xlink="http://www.w3.org/1999/xlink" width="161" height="99.329" viewBox="0 0 161 99.329"><defs><style>.a{fill:none;}.b{fill:#c0e3f0;}.c{clip-path:url(#a);}.d{fill:#273a58;}.e{fill:#29a0d8;}.f{fill:#f4634e;}.g{fill:#239cdc;}</style><clipPath id="a"><rect class="a" width="99.314" height="99.329"/></clipPath></defs><g transform="translate(-240 -761.6)"><rect class="b" width="161" height="54" rx="27" transform="translate(240 785)"/><rect class="b" width="83" height="28" rx="14" transform="translate(279 779)"/><g transform="translate(265.572 761.6)"><g class="c"><path class="d" d="M95.465,132.528a36.264,36.264,0,0,1-25.833-10.789,35.734,35.734,0,0,1-10.9-25.949A36.957,36.957,0,0,1,96.468,58.54a36.966,36.966,0,0,1,36.309,37.3A35.57,35.57,0,0,1,123.1,120.47c-7.335,7.926-16.521,11.95-27.64,12.058M77.692,83.937c-.094.163-.163.286-.236.406a20.839,20.839,0,0,0-2.5,6.042c-.123.524-.4.654-.89.712-1.532.184-3.056.442-4.588.627-.515.063-.754.21-.745.783q.047,3.017,0,6.035c-.009.579.223.708.74.769,1.461.172,2.912.439,4.374.6.647.072,1.014.262,1.171.96a18.19,18.19,0,0,0,2.35,5.636.91.91,0,0,1-.089,1.227c-.933,1.185-1.789,2.431-2.739,3.6-.442.544-.374.858.109,1.32,1.377,1.314,2.732,2.655,4.036,4.041.467.5.758.428,1.229.055,1.182-.936,2.421-1.8,3.6-2.742a.969.969,0,0,1,1.322-.06,18.737,18.737,0,0,0,5.644,2.338.908.908,0,0,1,.834.9c.179,1.533.435,3.056.637,4.587.069.525.211.808.847.793,1.975-.047,3.952-.039,5.927,0,.555.01.743-.185.81-.705.2-1.567.462-3.125.656-4.693a.85.85,0,0,1,.746-.861,19.174,19.174,0,0,0,5.841-2.42.846.846,0,0,1,1.136.076c1.248.969,2.535,1.887,3.777,2.864a.651.651,0,0,0,1.057-.074c1.372-1.421,2.766-2.823,4.192-4.19.44-.422.423-.7.068-1.155-.955-1.213-1.845-2.477-2.8-3.688a.911.911,0,0,1-.062-1.228,18.878,18.878,0,0,0,2.348-5.639.994.994,0,0,1,.967-.922c1.533-.174,3.055-.449,4.588-.623.545-.062.726-.238.717-.79q-.044-2.963,0-5.927c.01-.588-.168-.809-.767-.876-1.5-.167-2.983-.45-4.481-.607a.967.967,0,0,1-1.015-.849,18.629,18.629,0,0,0-2.383-5.74.9.9,0,0,1,.111-1.219c.927-1.189,1.8-2.424,2.734-3.6.375-.472.457-.762-.042-1.234q-2.113-2-4.111-4.117c-.467-.5-.763-.409-1.227-.045-1.214.952-2.48,1.839-3.691,2.8a.825.825,0,0,1-1.125.065,18.919,18.919,0,0,0-5.738-2.391.971.971,0,0,1-.861-1c-.179-1.5-.426-2.985-.624-4.48-.069-.522-.207-.822-.848-.807-1.975.044-3.952.035-5.927,0-.556-.009-.744.195-.811.72-.193,1.531-.461,3.053-.64,4.586a.97.97,0,0,1-.881.984,18.347,18.347,0,0,0-5.64,2.347.952.952,0,0,1-1.306-.1c-1.215-.951-2.477-1.843-3.691-2.8a.655.655,0,0,0-1.056.063c-1.375,1.418-2.765,2.823-4.188,4.192-.429.413-.447.688-.083,1.149.958,1.21,1.866,2.46,2.792,3.7.147.2.279.4.422.611" transform="translate(-46.061 -45.908)"/><path class="e" d="M82,17.832a45.288,45.288,0,0,0-65.271.726C6.965,28.993,3.034,41.5,4.77,55.732c.152,1.245.384,2.483.644,3.71.127.6-.028.845-.623.938-.921.143-1.838.328-2.749.527-.516.113-.745.017-.873-.568A49.572,49.572,0,0,1,41.447.749c16.147-2.66,30.342,1.8,42.423,12.883a3.291,3.291,0,0,0,1.18.9c.08-1.694.194-3.326.217-4.959.01-.717.241-.9.945-.874,2.07.068,2.038.033,1.931,2.085q-.235,4.52-.373,9.045c-.027.883-.24,1.224-1.241,1.157-3.3-.22-6.6-.341-9.9-.444-.865-.027-1.153-.283-1.1-1.182.117-1.809.065-1.824,1.873-1.755,1.427.055,2.853.142,4.6.231" transform="translate(0 0)"/><path class="e" d="M56.467,224.193c0,1.8-.023,3.451.011,5.1.015.726-.2,1.024-.979.962-2.364-.185-2.01.4-1.922-2.116.107-3.051.293-6.1.38-9.151.025-.856.309-1.068,1.137-1.021,3.406.193,6.816.331,10.226.461.652.025.934.165.9.926-.088,2.077-.043,2.084-2.078,1.989-1.323-.062-2.645-.14-4.306-.228.963.855,1.68,1.525,2.431,2.156A44.544,44.544,0,0,0,93.6,234.047a45.354,45.354,0,0,0,42.379-54.884c-.163-.768-.085-1.117.761-1.191,1.089-.095,2.46-.954,3.155-.343.661.581.564,2.061.74,3.155,3.9,24.173-10.205,47.709-33.519,55.063-18.414,5.808-35.009,1.916-49.467-10.924-.215-.191-.428-.383-.649-.567a2.993,2.993,0,0,0-.533-.162" transform="translate(-41.965 -139.146)"/><path class="f" d="M114.063,120.115c-.143-.208-.276-.415-.423-.611-.925-1.236-1.833-2.486-2.792-3.7-.364-.46-.346-.736.083-1.149,1.423-1.369,2.814-2.774,4.189-4.192a.655.655,0,0,1,1.056-.063c1.214.953,2.476,1.845,3.691,2.8a.952.952,0,0,0,1.306.1,18.354,18.354,0,0,1,5.64-2.347.97.97,0,0,0,.881-.984c.179-1.533.446-3.055.64-4.586.066-.525.254-.729.811-.72,1.975.031,3.952.04,5.927,0,.641-.014.778.286.847.807.2,1.495.445,2.983.624,4.48a.972.972,0,0,0,.86,1,18.912,18.912,0,0,1,5.739,2.391.825.825,0,0,0,1.125-.065c1.21-.957,2.476-1.844,3.691-2.8.464-.364.76-.45,1.227.045q2,2.116,4.111,4.117c.5.472.417.762.042,1.234-.938,1.181-1.807,2.415-2.734,3.6a.9.9,0,0,0-.111,1.219,18.637,18.637,0,0,1,2.383,5.74.967.967,0,0,0,1.015.849c1.5.157,2.984.44,4.481.606.6.067.776.288.767.876q-.049,2.963,0,5.927c.008.552-.173.728-.717.79-1.533.174-3.055.449-4.588.623a.994.994,0,0,0-.967.922,18.879,18.879,0,0,1-2.348,5.639.911.911,0,0,0,.062,1.228c.958,1.21,1.848,2.475,2.8,3.688.355.451.372.733-.068,1.155-1.426,1.367-2.82,2.769-4.192,4.19a.651.651,0,0,1-1.057.074c-1.242-.976-2.529-1.9-3.777-2.864a.846.846,0,0,0-1.136-.076,19.177,19.177,0,0,1-5.841,2.42.85.85,0,0,0-.746.861c-.195,1.567-.456,3.126-.656,4.693-.067.52-.255.715-.811.705-1.975-.035-3.952-.043-5.927,0-.636.015-.778-.268-.847-.793-.2-1.53-.458-3.054-.637-4.587a.908.908,0,0,0-.834-.9,18.736,18.736,0,0,1-5.644-2.338.969.969,0,0,0-1.322.06c-1.177.942-2.417,1.806-3.6,2.742-.471.373-.763.442-1.23-.055-1.3-1.386-2.658-2.727-4.035-4.041-.484-.461-.551-.776-.109-1.32.951-1.169,1.806-2.415,2.739-3.6a.91.91,0,0,0,.089-1.227,18.194,18.194,0,0,1-2.35-5.636c-.157-.7-.523-.888-1.171-.96-1.462-.164-2.913-.431-4.374-.6-.517-.061-.749-.19-.74-.769q.049-3.017,0-6.035c-.009-.574.23-.721.745-.783,1.532-.186,3.056-.443,4.588-.627.486-.058.767-.188.89-.712a20.833,20.833,0,0,1,2.5-6.042c.072-.12.141-.243.236-.406m34.3,11.6a16.244,16.244,0,1,0-16.23,16.249,16.286,16.286,0,0,0,16.23-16.249" transform="translate(-82.432 -82.087)"/><path class="g" d="M187.547,170.841a16.244,16.244,0,1,1-16.2-16.3,16.234,16.234,0,0,1,16.2,16.3m-3.909,0a12.334,12.334,0,1,0-12.4,12.35,12.335,12.335,0,0,0,12.4-12.35" transform="translate(-121.616 -121.21)"/><path class="f" d="M197.856,185.062a12.334,12.334,0,1,1-12.271-12.382,12.3,12.3,0,0,1,12.271,12.382m-12.328-8.649a8.659,8.659,0,1,0,8.642,8.7,8.6,8.6,0,0,0-8.642-8.7" transform="translate(-135.834 -135.435)"/><path class="d" d="M198.929,189.99a8.659,8.659,0,1,1-8.655,8.581,8.6,8.6,0,0,1,8.655-8.581" transform="translate(-149.235 -149.012)"/></g></g></g></svg>