<svg xmlns="http://www.w3.org/2000/svg" width="84.89" height="84.865" viewBox="0 0 84.89 84.865"><defs><style>.a{fill:#707070;}.b{fill:#39b54a;}.c{fill:#fd0;opacity:0.8;}</style></defs><g transform="translate(-2604 -1304.022)"><path class="a" d="M2709.749,1304.022c2.917,1.991,5.845,3.968,8.744,5.985a1.433,1.433,0,0,1,.271,2.13c-.595.9-1.217,1.774-1.857,2.7.634.645,1.88.941,1.6,2.075a12.191,12.191,0,0,1-1.268,2.525c7.636,7.279,11.13,16.224,9.53,26.789-1.6,10.539-7.612,17.991-17.17,22.814,6.09.164,9.79,3.177,11.259,9.1,1.394,0,2.851,0,4.307,0,1.5,0,1.987.483,1.988,1.978,0,2.321,0,4.642,0,6.963,0,1.231-.541,1.8-1.756,1.8q-22.174.008-44.348,0a1.535,1.535,0,0,1-1.744-1.734q-.026-3.647,0-7.295c.008-1.15.594-1.7,1.766-1.708,1.545-.01,3.091,0,4.71,0a11.919,11.919,0,0,1,4.443-7.4,6.369,6.369,0,0,0-1.178.075,7.915,7.915,0,0,1-9.879-6.285,7.586,7.586,0,0,1,1.039-5.489c.129-.212.261-.422.389-.635.01-.017-.009-.051-.034-.168-1.319,0-2.66.005-4,0-1.284-.006-1.8-.525-1.8-1.82-.006-1.409-.01-2.819,0-4.228a1.5,1.5,0,0,1,1.675-1.7q10.527-.016,21.055,0a1.483,1.483,0,0,1,1.646,1.65q.022,2.238,0,4.476a1.482,1.482,0,0,1-1.662,1.625c-1.38.013-2.76,0-4.224,0,.417.859.77,1.511,1.872,1.6,7.406.589,13.228-2.146,17.4-8.265a18.064,18.064,0,0,0,1.387-17.209l2.6-1.165c2.637,4.95,3.149,13.945-2.171,21.014-4.836,6.426-11.393,9.17-19.444,8.634a8.166,8.166,0,0,1-1.839,5.412,26.852,26.852,0,0,0,22.4-46.31c-.143.188-.292.368-.425.559q-4.836,6.977-9.669,13.956c-.892,1.287-1.535,1.413-2.812.54-.542-.37-1.082-.743-1.654-1.136-1.077,1.561-2.108,3.062-3.146,4.558-.789,1.137-1.493,1.262-2.645.471q-2.732-1.875-5.458-3.759c-1.123-.777-1.249-1.5-.463-2.645,1.028-1.5,2.063-3,3.125-4.541-.671-.469-1.308-.9-1.931-1.353a1.48,1.48,0,0,1-.425-2.288q6.527-9.487,13.076-18.959a1.485,1.485,0,0,1,2.351-.4c.274.179.546.36.748.494l2.962-3.424Zm-12.68,74.095h20.684a7.6,7.6,0,0,0-5.466-5.769,4.709,4.709,0,0,0-1.3-.21c-5.136-.013-10.276-.117-15.408.03a7.371,7.371,0,0,0-6.879,7.128c-.053,1.363-.525,1.826-1.879,1.829-1.482,0-2.963,0-4.476,0v4.723h41.785v-4.733h-27.057Zm-3.9-51.23,10.285,7.089,11.517-16.754-10.254-7.074Zm-6.335,41.2a4.921,4.921,0,1,0-4.79-5.149A4.889,4.889,0,0,0,2686.834,1368.084Zm9.3-14.559H2677.8v1.676h18.335Zm-1.381-21.863-2.508,3.646,3.662,2.526,2.509-3.64Zm20.774-20.1-5.7-3.932-1.1,1.595,5.7,3.931Z" transform="translate(-38.269)"/><path class="a" d="M2604,1424.327c.124-.532.231-1.068.374-1.594a11.586,11.586,0,0,1,2.293-4.363c2.968-3.6,5.894-7.243,8.894-10.82a9.125,9.125,0,0,0,2.276-6.3c-.059-2.6-.012-5.195-.012-7.792v-.962h2.942c.013.26.037.525.037.789,0,2.764-.016,5.527.008,8.29a11.427,11.427,0,0,1-2.751,7.617q-4.571,5.523-9.091,11.088a8.161,8.161,0,0,0,6.362,13.467c7.184.03,14.369.01,21.553.01h1.053v2.982h-.9q-10.776,0-21.553,0a11.14,11.14,0,0,1-11.356-9.462,1.361,1.361,0,0,0-.132-.294Z" transform="translate(0 -47.851)"/><path class="a" d="M2629.068,1304.022c.562.129,1.13.232,1.684.39a9.167,9.167,0,1,1-3.9-.241,4.958,4.958,0,0,0,.553-.149Zm5.317,9.231a6.148,6.148,0,1,0-6.2,6.114A6.171,6.171,0,0,0,2634.385,1313.253Z" transform="translate(-8.156)"/><path class="a" d="M2651.408,1376.7h-2.958v-9.344h-1.071q-7.374,0-14.749,0a12.131,12.131,0,0,1-1.9-.106,4.567,4.567,0,0,1-3.75-4.836,4.5,4.5,0,0,1,4.379-4.256q9.446-.048,18.891,0a4.574,4.574,0,0,1,1.827,8.707,1,1,0,0,0-.681,1.1c.025,2.6.01,5.192.01,7.788Zm-10.613-12.384v-.014q4.6,0,9.193,0a1.59,1.59,0,1,0,.081-3.171q-9.235-.017-18.47,0a1.553,1.553,0,0,0-1.636,1.678,1.571,1.571,0,0,0,1.721,1.507Q2636.239,1364.311,2640.794,1364.313Z" transform="translate(-12.424 -29.264)"/><path class="a" d="M2674.106,1329.575a4.953,4.953,0,1,1,.006,9.905,4.953,4.953,0,0,1-.006-9.905Zm1.982,4.966a1.916,1.916,0,0,0-1.9-1.977,1.956,1.956,0,0,0-2.035,1.937,1.982,1.982,0,0,0,2,1.994A1.956,1.956,0,0,0,2676.088,1334.541Z" transform="translate(-35.247 -13.821)"/><path class="a" d="M2754.621,1359.062l2.325-1.869,1.618,2.3-2.521,1.548Z" transform="translate(-81.465 -28.758)"/><path class="a" d="M2634.226,1382.424h2.879v2.4h-2.879Z" transform="translate(-16.348 -42.405)"/><path class="b" d="M2637.93,1316.8a6.148,6.148,0,1,1-6.1-6.221A6.162,6.162,0,0,1,2637.93,1316.8Z" transform="translate(-11.701 -3.546)"/><path class="c" d="M2644.317,1367.835q-4.555,0-9.111,0a1.572,1.572,0,0,1-1.721-1.507,1.553,1.553,0,0,1,1.636-1.678q9.235-.019,18.47,0a1.59,1.59,0,1,1-.081,3.171q-4.6.005-9.193,0Z" transform="translate(-15.946 -32.787)"/><path class="c" d="M2679.606,1338.061a1.955,1.955,0,0,1-1.937,1.954,1.982,1.982,0,0,1-2-1.994,1.956,1.956,0,0,1,2.035-1.937A1.916,1.916,0,0,1,2679.606,1338.061Z" transform="translate(-38.766 -17.341)"/><path class="a" d="M2710.958,1465.553h2.865v2.867h-2.865Z" transform="translate(-57.849 -87.366)"/></g></svg>