<svg xmlns="http://www.w3.org/2000/svg" width="161" height="105.51" viewBox="0 0 161 105.51"><defs><style>.a{fill:#c0e3f0;}.b{fill:#1c3755;}.c{fill:#29a0d8;}.d{fill:#ef694c;}</style></defs><g transform="translate(-240 -743.49)"><rect class="a" width="161" height="54" rx="27" transform="translate(240 785)"/><rect class="a" width="83" height="28" rx="14" transform="translate(279 779)"/><g transform="translate(-4475.319 -1622.509)"><path class="b" d="M4804.069,2446.7h9.714c2.282,0,2.763.49,2.763,2.814q0,23.34,0,46.68c0,2.135-.531,2.661-2.683,2.661h-59.809c-2.147,0-2.675-.529-2.675-2.67,0-16.491.1-32.983-.06-49.473-.052-5.425,3.825-9.74,9.44-9.341,1.313.093,2.642-.059,3.953.039a1.932,1.932,0,0,0,2.03-1.1q10.088-16.527,20.243-33.013c1.165-1.9,1.749-2.057,3.635-.9q13.739,8.4,27.466,16.817c1.545.947,1.728,1.781.752,3.372q-7.022,11.45-14.053,22.895C4804.586,2445.8,4804.4,2446.138,4804.069,2446.7Zm-48.911,48.346h57.606v-12.955h-12.939c-5.539,0-9.344-3.752-9.347-9.219,0-5.62,3.717-9.4,9.272-9.409q5.876-.009,11.752,0h1.233v-12.981h-57.577Zm23.06-48.351a11.631,11.631,0,0,1,1.175-15.818,11.293,11.293,0,0,1,14.171-.513,10.756,10.756,0,0,1,4.059,6.2c.9,3.695-.071,7.025-2.473,10.131,1.323,0,2.442-.048,3.555.017a1.431,1.431,0,0,0,1.471-.823c3.187-5.23,6.407-10.439,9.615-15.656.136-.221.252-.455.391-.706-4.05-3.538-4.981-7.806-3.116-12.821l-9.51-5.825a9.89,9.89,0,0,1-5.817,3.756,12.084,12.084,0,0,1-6.989-.637l-19.984,32.691Zm1.075-7.485a7.452,7.452,0,1,0,7.38-7.411A7.465,7.465,0,0,0,4779.293,2439.212Zm33.476,27.981c-4.541,0-8.991-.023-13.44.008-3.056.021-5.125,2.3-5.124,5.547,0,3.333,2.055,5.579,5.178,5.612,2.6.028,5.193.007,7.79.008h5.6Zm-48.993-26.077c-1.508,0-2.809-.026-4.107.005a4.566,4.566,0,0,0-4.42,5.58c1.523,0,3.063.013,4.6-.014a.913.913,0,0,0,.669-.305C4761.591,2444.7,4762.625,2442.99,4763.775,2441.116Zm30.432-32.238-4.568-2.823c-.515.83-.987,1.576-1.446,2.332-.473.78-.934,1.568-1.4,2.356A6.186,6.186,0,0,0,4794.207,2408.878Zm16.138,10.058c-1.108,2.453-.167,6.016,1.881,7.245l2.654-4.475c-1.246-.77-2.359-1.46-3.476-2.146C4811.078,2419.36,4810.744,2419.171,4810.345,2418.936Z" transform="translate(0 -27.349)"/><path class="b" d="M5035.5,2448.452l-3.119-2.026,20.477-31.657,3.123,2.021Z" transform="translate(-215.525 -37.399)"/><path class="b" d="M4839.651,2366.756l3.1,2.058-14.889,22.346-3.1-2.064Z" transform="translate(-56.317 -0.581)"/><path class="b" d="M5011.553,2385.573l-3.1-2.061,11.167-16.762,3.1,2.06Z" transform="translate(-197.179 -0.576)"/><path class="b" d="M4964.522,2366l3.2,1.891-5.518,9.321-3.212-1.875C4960.845,2372.21,4962.663,2369.14,4964.522,2366Z" transform="translate(-159.25)"/><path class="c" d="M4822.438,2477.028h-13.452l19.984-32.691a12.085,12.085,0,0,0,6.99.637,9.889,9.889,0,0,0,5.817-3.756l9.51,5.825c-1.866,5.016-.935,9.284,3.116,12.821-.139.251-.255.484-.391.706-3.208,5.217-6.428,10.426-9.615,15.656a1.432,1.432,0,0,1-1.472.823c-1.112-.065-2.231-.017-3.555-.017,2.4-3.106,3.372-6.437,2.474-10.131a10.758,10.758,0,0,0-4.059-6.2,11.293,11.293,0,0,0-14.171.513A11.632,11.632,0,0,0,4822.438,2477.028Z" transform="translate(-44.22 -57.68)"/><path class="d" d="M4871.285,2538.319a7.452,7.452,0,1,1,7.449,7.485A7.414,7.414,0,0,1,4871.285,2538.319Z" transform="translate(-91.992 -126.457)"/><path class="c" d="M4953.8,2682.662v11.175h-5.6c-2.6,0-5.193.02-7.79-.008-3.124-.033-5.177-2.279-5.178-5.612,0-3.249,2.069-5.527,5.124-5.548C4944.807,2682.639,4949.257,2682.662,4953.8,2682.662Zm-9.2,1.862a3.725,3.725,0,1,0,3.663,3.726A3.735,3.735,0,0,0,4944.6,2684.524Z" transform="translate(-141.029 -242.819)"/><path class="d" d="M4910.859,2423.32a6.186,6.186,0,0,1-7.416,1.865c.468-.788.928-1.576,1.4-2.356.458-.755.931-1.5,1.446-2.332Z" transform="translate(-116.652 -41.791)"/><path class="d" d="M5002.908,2475.738c.4.235.733.424,1.059.625,1.117.686,2.23,1.376,3.476,2.146l-2.654,4.475C5002.741,2481.754,5001.8,2478.191,5002.908,2475.738Z" transform="translate(-192.563 -84.151)"/><path class="d" d="M4962.969,2690.674a3.725,3.725,0,1,1-3.782,3.724A3.733,3.733,0,0,1,4962.969,2690.674Z" transform="translate(-159.398 -248.968)"/></g></g></svg>