<svg xmlns="http://www.w3.org/2000/svg" xmlns:xlink="http://www.w3.org/1999/xlink" width="161" height="93.911" viewBox="0 0 161 93.911"><defs><style>.a{fill:none;}.b{fill:#c0e3f0;}.c{clip-path:url(#a);}.d{fill:#1c3755;}.e{fill:#29a0d8;}.f{fill:#f4634e;}.g{fill:#2296f1;}</style><clipPath id="a"><rect class="a" width="93.692" height="93.911"/></clipPath></defs><g transform="translate(-240 -752.4)"><rect class="b" width="161" height="54" rx="27" transform="translate(240 785)"/><rect class="b" width="83" height="28" rx="14" transform="translate(279 779)"/><g transform="translate(273.257 752.4)"><g class="c"><path class="d" d="M78.621,38.536c-2.641,2.965-5.65,4.585-9.615,3.592a8.932,8.932,0,0,1-6.884-7.89c-.023-.214.061-.5-.048-.635-2.025-2.526-2.33-5.942-4-8.477-2.371-3.6-2.766-7.318.026-10.6a4.354,4.354,0,0,0,.92-2.413A7.679,7.679,0,0,1,64.342,5a3.78,3.78,0,0,0,1.706-1.079c3.6-4.677,7.733-5.092,12.293-1.171a1.373,1.373,0,0,0,.377.167c5.059-4.237,8.3-3.9,12.728,1.267a3.343,3.343,0,0,0,1.439.791,7.568,7.568,0,0,1,5.455,7.21,4.4,4.4,0,0,0,.982,2.4c2.7,3.2,2.4,6.977.023,10.424a34.076,34.076,0,0,0-3.8,8.537c-1.27,3.823-2.529,7.022-6.44,8.377-3.971,1.376-7.313.052-10.016-3.057a3,3,0,0,0-.471-.33m-7.63-11.4c-.679.147-1.179.211-1.65.365a6.142,6.142,0,0,0,2.361,12,6.039,6.039,0,0,0,5.484-6.125c.03-8.556,0-17.112.017-25.668A4.413,4.413,0,0,0,74.51,3.414a4.311,4.311,0,0,0-4.834.664c-1.489,1.21-2.246,3.006-1.451,4.606.811,1.632,2.445,2.856,3.719,4.259l.532-.36c-.034.765-.067,1.531-.1,2.29-3.891-.024-5.758-1.772-7.493-6.917a4.146,4.146,0,0,0-2.91,4.074c-.071,2.975,1.9,4.252,4.287,4.923v2.906a24.24,24.24,0,0,1-3.41-1.232A20.883,20.883,0,0,1,60.177,16.6c-2.273,3.254-1.692,4.993,2.655,8.208-.762,1.449-1.485,2.929.028,4.6,2-2.946,4.388-4.994,8.13-4.933ZM92.4,7.915c-.87,4.017-2.871,6.761-7.366,7.122V12.4c.523-.185,1.01-.321,1.466-.525A4.624,4.624,0,0,0,89.225,6.39a4.813,4.813,0,0,0-4.9-3.412,4.573,4.573,0,0,0-4.142,4.687q-.046,12.93,0,25.862a6,6,0,0,0,6.267,5.985,6.07,6.07,0,0,0,5.922-6.357c-.09-3.086-1.845-4.91-5.962-6.141V24.47c3.736-.02,6.156,2.045,8.109,4.943l.733-.337c-.121-1.508-.242-3.018-.371-4.625,3.964-2.324,4.765-4.974,2.368-7.529l-6.2,3.266V16.965c3.084-1.038,4.318-2.373,4.341-4.716a4.254,4.254,0,0,0-3-4.334" transform="translate(-31.816 0)"/><path class="d" d="M90.666,185.356H63.728v-2.638H93.573c0,3.091.317,6.194-.084,9.2-.45,3.371-3.675,5.513-7.477,5.516q-23.721.023-47.443.008-15.2,0-30.407,0c-5.278-.008-8.13-2.853-8.157-8.082-.01-2.146,0-4.293,0-6.629H30.024c.04.745.08,1.495.137,2.545H2.915a37.111,37.111,0,0,0,.052,5.581c.422,2.628,2.246,3.835,5.4,3.842q17.79.038,35.581.02c13.226,0,26.455-.166,39.677.068,6.128.108,8.3-2.35,7.042-9.43" transform="translate(0 -103.538)"/><path class="d" d="M24.794,48.55c-3.046,0-5.979-.005-8.913,0-4.494.009-6.141,1.616-6.145,6.052Q9.717,76.812,9.72,99.02c0,.777,0,1.555,0,2.467H7.113c-.042-.59-.125-1.211-.125-1.832q-.01-22.856,0-45.713c.005-5.332,2.929-8.231,8.274-8.262,2.444-.014,4.887,0,7.331,0,2.474.005,2.474.007,2.2,2.868" transform="translate(-3.955 -25.88)"/><path class="d" d="M185.8,101.674h-2.542V98.057q.007-21.663.01-43.326c0-4.413-1.69-6.069-6.15-6.072-2.934,0-5.868,0-8.935,0V45.975c3.982,0,7.857-.258,11.68.075a6.744,6.744,0,0,1,6.11,6.718c.045,16.094.01,32.19,0,48.285a3.35,3.35,0,0,1-.171.62" transform="translate(-95.302 -25.998)"/><path class="d" d="M23.853,109.48H20.959V93.923q0-14.967,0-29.934c0-3.519.727-4.237,4.324-4.245,3.433-.009,6.865,0,10.471,0v2.781h-11.9Z" transform="translate(-11.876 -33.851)"/><path class="d" d="M176,109.608h-2.726V62.727H161.213v-2.8c4.18,0,8.33-.137,12.463.061,1.937.093,2.345,1.743,2.34,3.513-.032,11-.019,22-.02,33,0,4.3,0,8.6,0,13.1" transform="translate(-91.352 -33.932)"/><path class="d" d="M76.83,182.534H103.9a45.285,45.285,0,0,1-.038,5.072,4.158,4.158,0,0,1-4.148,3.657q-9.263.068-18.527,0a4.245,4.245,0,0,1-4.343-4.162c-.093-1.428-.017-2.867-.017-4.566m3.086,2.768c-.29,2.664.063,3.2,2.275,3.218q8.194.062,16.388,0c2.3-.02,2.731-.736,2.114-3.215Z" transform="translate(-43.519 -103.434)"/><rect class="d" width="2.722" height="20.916" transform="translate(39.464 45.647)"/><rect class="d" width="2.667" height="20.904" transform="translate(51.609 45.633)"/><path class="d" d="M56.1,115.475V112.6c1.785,0,3.492-.059,5.192.017s2.329-.738,2.315-2.326c-.023-2.639-.006-5.277-.006-8.049h2.71c0,3.266.184,6.555-.069,9.811a3.779,3.779,0,0,1-3.677,3.381c-2.114.2-4.263.046-6.465.046" transform="translate(-31.788 -57.933)"/><path class="d" d="M136.466,102.187h2.772c0,2.672.056,5.234-.018,7.792-.056,1.944.743,2.75,2.7,2.611,1.556-.11,3.127-.023,4.8-.023v2.885c-2.123,0-4.263.133-6.38-.037a4.177,4.177,0,0,1-3.857-4.18c-.069-2.934-.017-5.871-.017-9.049" transform="translate(-77.318 -57.905)"/><rect class="d" width="2.541" height="2.752" transform="translate(18.303 54.759)"/><rect class="d" width="2.548" height="2.722" transform="translate(72.861 54.755)"/><rect class="d" width="2.699" height="2.602" transform="translate(39.438 69.975)"/><rect class="d" width="2.679" height="2.643" transform="translate(51.602 70.027)"/><rect class="d" width="2.599" height="2.499" transform="translate(18.267 85.248)"/><rect class="d" width="2.526" height="2.494" transform="translate(12.23 85.281)"/><rect class="d" width="2.488" height="2.482" transform="translate(6.179 85.225)"/><path class="e" d="M74.554,31V28.341c-3.742-.061-6.131,1.988-8.13,4.934-1.513-1.672-.79-3.152-.028-4.6-4.347-3.215-4.928-4.954-2.655-8.208a20.883,20.883,0,0,0,2.672,2.022,24.177,24.177,0,0,0,3.409,1.233V20.814c-2.39-.672-4.359-1.948-4.287-4.923a4.147,4.147,0,0,1,2.91-4.074c1.736,5.145,3.6,6.892,7.493,6.917.033-.759.067-1.525.1-2.289l-.532.359c-1.274-1.4-2.908-2.627-3.719-4.258-.8-1.6-.038-3.4,1.452-4.606a4.311,4.311,0,0,1,4.833-.664,4.411,4.411,0,0,1,2.692,4.293c-.016,8.556.013,17.112-.017,25.668a6.038,6.038,0,0,1-5.484,6.125,6.142,6.142,0,0,1-2.361-12c.471-.154.972-.218,1.65-.365" transform="translate(-35.379 -3.861)"/><path class="f" d="M123.793,11.777a4.254,4.254,0,0,1,3,4.334c-.023,2.344-1.257,3.678-4.341,4.716v3.222l6.2-3.266c2.4,2.555,1.6,5.205-2.368,7.529.129,1.607.25,3.117.371,4.625l-.733.337c-1.954-2.9-4.373-4.963-8.109-4.943v2.544c4.118,1.231,5.872,3.055,5.962,6.141a6.07,6.07,0,0,1-5.922,6.357,6,6,0,0,1-6.267-5.985q-.07-12.931,0-25.862a4.573,4.573,0,0,1,4.142-4.687,4.813,4.813,0,0,1,4.9,3.412,4.624,4.624,0,0,1-2.726,5.482c-.456.2-.944.34-1.466.525V18.9c4.5-.361,6.5-3.105,7.366-7.122" transform="translate(-63.21 -3.862)"/><path class="g" d="M83.876,188.922h20.777c.617,2.479.187,3.2-2.114,3.215q-8.194.072-16.388,0c-2.212-.017-2.565-.553-2.275-3.218" transform="translate(-47.479 -107.053)"/></g></g></g></svg>