<svg xmlns="http://www.w3.org/2000/svg" xmlns:xlink="http://www.w3.org/1999/xlink" width="161" height="115.712" viewBox="0 0 161 115.712"><defs><style>.a{fill:none;}.b{fill:#c0e3f0;}.c{clip-path:url(#a);}.d{fill:#1c3755;}.e{fill:#29a0d8;}.f{fill:#f4634e;}</style><clipPath id="a"><rect class="a" width="104.128" height="115.712"/></clipPath></defs><g transform="translate(-240 -746.881)"><rect class="b" width="161" height="54" rx="27" transform="translate(240 785)"/><rect class="b" width="83" height="28" rx="14" transform="translate(279 779)"/><g transform="translate(269 746.881)"><g class="c"><path class="d" d="M172.931,35.925c0,4.7.026,9.4-.006,14.1-.076,11.409-8.834,20.678-20.5,21.726-10.591.952-20.827-7.009-22.855-17.82a23.833,23.833,0,0,1-.423-4.277q-.055-14.039-.011-28.078A22.144,22.144,0,0,1,145.22.764a21.866,21.866,0,0,1,24.407,9.693,22.406,22.406,0,0,1,3.306,11.836q-.011,6.816,0,13.631m-3.623-14.776c-.514-6.625-3.342-11.721-8.957-14.96a17.567,17.567,0,0,0-19.3.414c-5.253,3.343-7.852,8.36-8.278,14.708H141.9v3.671h-9.239v9.184h11.053v3.683H132.866v9.164h9.023v3.649h-9.135c.538,6.856,3.587,12.082,9.553,15.255a17.482,17.482,0,0,0,19.067-1.036c4.953-3.349,7.512-8.154,7.913-14.278H160.14V47.01h9.234V37.559H158.352V33.967H169.2v-9.25h-9.035V21.149Z" transform="translate(-98.963 0)"/><path class="d" d="M120.638,198.43v21.025h1.292c2.759,0,5.518-.025,8.277.01a5.6,5.6,0,0,1,5.756,5.74q.041,2.68,0,5.361c-.024,1.469-.608,2.051-2.071,2.053q-15.038.015-30.075,0c-1.455,0-2.049-.612-2.061-2.054-.015-1.865-.02-3.73,0-5.595a5.581,5.581,0,0,1,5.681-5.687c3.1-.023,6.206-.005,9.4-.005V198.13a30.55,30.55,0,0,1-10.793-2.633c-11.8-5.586-18.164-14.927-18.907-27.955-.245-4.3-.059-8.622-.042-12.934.006-1.522.943-2.316,2.3-2,1.137.266,1.351,1.135,1.352,2.145.005,4.584-.071,9.171.058,13.752a26.1,26.1,0,0,0,3.775,13.055c4.323,7.075,10.783,11.036,18.84,12.39,8.28,1.392,16.024-.088,22.886-5.1a24.192,24.192,0,0,0,10.137-17.89c.483-5.164.249-10.4.337-15.6a9.111,9.111,0,0,1,.035-1.279,1.6,1.6,0,0,1,1.515-1.509,1.7,1.7,0,0,1,1.927,1.155,2.244,2.244,0,0,1,.169.79c-.038,4.971.184,9.962-.19,14.908a31.173,31.173,0,0,1-23.9,27.975c-1.84.446-3.731.679-5.7,1.029m11.493,30.545c0-1.186.008-2.3,0-3.415-.016-1.833-.7-2.51-2.545-2.513q-4.83-.009-9.66,0c-4.073,0-8.146-.007-12.219.005-1.312,0-2.181.607-2.253,1.7-.09,1.38-.022,2.771-.022,4.226Z" transform="translate(-66.694 -116.915)"/><path class="d" d="M415.738,18.573a21.324,21.324,0,0,1-5.9,14.97,1.757,1.757,0,0,1-2.66.308,1.788,1.788,0,0,1,.061-2.759,17.112,17.112,0,0,0,4.751-10.247,17.011,17.011,0,0,0-4.043-13.061c-.272-.328-.58-.627-.851-.956a1.739,1.739,0,0,1,.076-2.581,1.847,1.847,0,0,1,2.615.074,20.43,20.43,0,0,1,5.645,11.242c.185,1.144.239,2.309.308,3.009" transform="translate(-311.61 -2.867)"/><path class="d" d="M0,20.141C.126,13.585,2.034,8.723,5.9,4.654A1.787,1.787,0,0,1,8.568,4.34c.839.755.845,1.766-.07,2.752a17.275,17.275,0,0,0-4.739,10.27A17.472,17.472,0,0,0,7.811,30.57c.294.361.634.685.92,1.052a1.783,1.783,0,0,1-2.661,2.373A19.933,19.933,0,0,1,.805,24.813C.35,22.981.157,21.083,0,20.141" transform="translate(0 -2.971)"/><path class="d" d="M380.038,42.806c.02,3.563-.9,5.889-2.7,7.867a1.819,1.819,0,0,1-2.667.379c-.873-.74-.877-1.731-.011-2.756a6.721,6.721,0,0,0,.044-9.117c-.869-1.034-.925-1.982-.157-2.672a2.2,2.2,0,0,1,3.008.319,10.156,10.156,0,0,1,2.486,5.98" transform="translate(-286.662 -27.631)"/><path class="d" d="M46.047,43.789a9.823,9.823,0,0,1,2.691-6.666c.938-1.017,1.894-1.124,2.741-.349s.812,1.726-.1,2.752a6.618,6.618,0,0,0-.05,9.178c.965,1.131,1.006,2.065.123,2.843s-1.865.61-2.811-.5a10.575,10.575,0,0,1-2.593-7.262" transform="translate(-35.293 -27.796)"/><path class="e" d="M180.934,32.644H171.8v3.568h9.035v9.25H169.979v3.593H181v9.451h-9.234V62.1h9.146c-.4,6.125-2.959,10.929-7.913,14.279a17.482,17.482,0,0,1-19.067,1.036c-5.965-3.173-9.014-8.4-9.553-15.255h9.135V58.508h-9.023V49.344h10.846V45.661H144.285V36.477h9.239V32.805H144.4c.426-6.348,3.025-11.365,8.278-14.708a17.566,17.566,0,0,1,19.3-.414c5.614,3.239,8.443,8.336,8.957,14.96M156,71.257h3.675v-3.5H156Zm9.608-.007H169.3V67.81H165.61Zm-9.6-44.322H159.7V23.483H156.01Zm9.611.025h3.654v-3.5h-3.654Z" transform="translate(-110.589 -11.495)"/><path class="f" d="M192.488,460.368h-26.7c0-1.455-.068-2.846.022-4.226.071-1.092.94-1.7,2.253-1.7,4.073-.012,8.146-.005,12.219-.005q4.83,0,9.66,0c1.848,0,2.529.68,2.545,2.513.01,1.114,0,2.229,0,3.415" transform="translate(-127.051 -348.308)"/><rect class="d" width="3.675" height="3.5" transform="translate(45.412 56.261)"/><rect class="d" width="3.694" height="3.439" transform="translate(55.021 56.315)"/><rect class="d" width="3.692" height="3.445" transform="translate(45.421 11.987)"/><rect class="d" width="3.654" height="3.501" transform="translate(55.032 11.956)"/></g></g></g></svg>